<svg xmlns="http://www.w3.org/2000/svg" version="1.1" xmlns:xlink="http://www.w3.org/1999/xlink" xmlns:svgjs="http://svgjs.com/svgjs" width="1440" height="560" preserveAspectRatio="none" viewBox="0 0 1440 560"><g mask="url(&quot;#SvgjsMask1125&quot;)" fill="none"><rect width="60" height="60" clip-path="url(&quot;#SvgjsClipPath1126&quot;)" x="489.23" y="276.4" fill="url(#SvgjsPattern1127)" transform="rotate(178.3, 519.23, 306.4)"></rect><rect width="182.08" height="182.08" clip-path="url(&quot;#SvgjsClipPath1128&quot;)" x="89.27" y="408.74" fill="url(#SvgjsPattern1129)" transform="rotate(308.24, 180.31, 499.78)"></rect><rect width="75.8" height="75.8" clip-path="url(&quot;#SvgjsClipPath1130&quot;)" x="175.26" y="470.87" fill="url(#SvgjsPattern1131)" transform="rotate(55.6, 213.16, 508.77)"></rect><rect width="204" height="204" clip-path="url(&quot;#SvgjsClipPath1132&quot;)" x="1262.78" y="337.06" fill="url(#SvgjsPattern1133)" transform="rotate(28.27, 1364.78, 439.06)"></rect><path d="M916.94 287.37L911.17 275.94 921.05 267.79 915.28 256.36 925.16 248.22 919.39 236.79 929.27 228.65M924.77 289.01L919 277.58 928.88 269.44 923.11 258.01 932.99 249.86 927.22 238.43 937.1 230.29M932.6 290.65L926.83 279.22 936.71 271.08 930.94 259.65 940.82 251.51 935.05 240.08 944.93 231.94" stroke="rgba(255, 77, 95, 0.48)" stroke-width="1.5" stroke-dasharray="4, 4"></path><path d="M1029.96 187.98a5.6 5.6 0 1 0-4.42 10.29 5.6 5.6 0 1 0 4.42-10.29zM1023.64 202.68a5.6 5.6 0 1 0-4.42 10.29 5.6 5.6 0 1 0 4.42-10.29zM1017.32 217.38a5.6 5.6 0 1 0-4.42 10.29 5.6 5.6 0 1 0 4.42-10.29zM1011 232.08a5.6 5.6 0 1 0-4.42 10.29 5.6 5.6 0 1 0 4.42-10.29zM1027.9 152.26a5.6 5.6 0 1 0-4.43 10.29 5.6 5.6 0 1 0 4.43-10.29zM1021.58 166.96a5.6 5.6 0 1 0-4.43 10.29 5.6 5.6 0 1 0 4.43-10.29zM1015.26 181.66a5.6 5.6 0 1 0-4.42 10.29 5.6 5.6 0 1 0 4.42-10.29zM1008.94 196.36a5.6 5.6 0 1 0-4.42 10.29 5.6 5.6 0 1 0 4.42-10.29zM1025.83 116.55a5.6 5.6 0 1 0-4.42 10.29 5.6 5.6 0 1 0 4.42-10.29zM1019.51 131.25a5.6 5.6 0 1 0-4.42 10.29 5.6 5.6 0 1 0 4.42-10.29zM1013.2 145.95a5.6 5.6 0 1 0-4.43 10.29 5.6 5.6 0 1 0 4.43-10.29zM1006.88 160.65a5.6 5.6 0 1 0-4.43 10.29 5.6 5.6 0 1 0 4.43-10.29z" stroke="rgba(0, 189, 179, 0.31)" stroke-width="2.47" stroke-dasharray="3, 2"></path><path d="M695.27 301.98 L622.33 256.63L621.1282735717696 316.97672642823045z" stroke="rgba(102, 136, 238, 0.6666666666666666)" stroke-width="1.68" stroke-dasharray="2, 2"></path><path d="M395.71 496.39L408.51 495.95 411.75 508.34 424.55 507.89 427.79 520.28 440.59 519.84 443.83 532.23M390.93 502.8L403.73 502.36 406.97 514.75 419.77 514.31 423.01 526.7 435.81 526.26 439.05 538.64" stroke="rgba(0, 189, 179, 0.31)" stroke-width="1.82"></path><circle r="64.86616884710764" cx="473.91" cy="436.87" stroke="rgba(102, 136, 238, 0.6666666666666666)" stroke-width="1" stroke-dasharray="3, 3"></circle><path d="M723.89 122.19L731.73 132.32 723.56 142.19 731.4 152.32 723.24 162.18 731.07 172.31 722.91 182.18M715.89 122.06L723.73 132.19 715.56 142.05 723.4 152.18 715.24 162.05 723.07 172.18 714.91 182.05M707.89 121.93L715.73 132.06 707.57 141.92 715.4 152.05 707.24 161.92 715.07 172.05 706.91 181.92" stroke="rgba(0, 189, 179, 0.31)" stroke-width="2.49" stroke-dasharray="4, 4"></path><path d="M1160.23 625.3599999999999 L1128.88 719.5699999999999L1098.6032624398754 626.5132624398753z" stroke="rgba(102, 136, 238, 0.6666666666666666)" stroke-width="1.44" stroke-dasharray="2, 2"></path><circle r="46.666666666666664" cx="529.56" cy="315.96" fill="rgba(102, 136, 238, 0.6666666666666666)"></circle></g><defs><mask id="SvgjsMask1125"><rect width="1440" height="560" fill="#ffffff"></rect></mask><pattern x="0" y="0" width="6" height="6" patternUnits="userSpaceOnUse" id="SvgjsPattern1127"><path d="M3 1L3 5M1 3L5 3" stroke="rgba(102, 136, 238, 0.6666666666666666)" fill="none" stroke-width="1.79"></path></pattern><clipPath id="SvgjsClipPath1126"><circle r="15" cx="519.23" cy="306.4"></circle></clipPath><pattern x="0" y="0" width="182.08" height="11.38" patternUnits="userSpaceOnUse" id="SvgjsPattern1129"><rect width="182.08" height="5.69" x="0" y="0" fill="rgba(102, 136, 238, 0.6666666666666666)"></rect><rect width="182.08" height="5.69" x="0" y="5.69" fill="rgba(0, 0, 0, 0)"></rect></pattern><clipPath id="SvgjsClipPath1128"><circle r="45.52" cx="180.31" cy="499.78"></circle></clipPath><pattern x="0" y="0" width="75.8" height="7.58" patternUnits="userSpaceOnUse" id="SvgjsPattern1131"><rect width="75.8" height="3.79" x="0" y="0" fill="rgba(102, 136, 238, 0.6666666666666666)"></rect><rect width="75.8" height="3.79" x="0" y="3.79" fill="rgba(0, 0, 0, 0)"></rect></pattern><clipPath id="SvgjsClipPath1130"><circle r="18.95" cx="213.16" cy="508.77"></circle></clipPath><pattern x="0" y="0" width="6" height="6" patternUnits="userSpaceOnUse" id="SvgjsPattern1133"><path d="M3 1L3 5M1 3L5 3" stroke="rgba(102, 136, 238, 0.6666666666666666)" fill="none" stroke-width="1.05"></path></pattern><clipPath id="SvgjsClipPath1132"><circle r="51" cx="1364.78" cy="439.06"></circle></clipPath></defs></svg>